#N canvas 0 22 682 522 10;
#X obj 139 81 noise~;
#X obj 257 83 noise~;
#X obj 210 327 dac~;
#X obj 146 218 *~;
#X obj 266 207 *~;
#X obj 379 185 vsl 15 128 0 1 0 0 empty empty empty 0 -9 0 10 -262144
-1 -1 0 1;
#X obj 441 187 vsl 15 128 0 1 0 0 empty empty empty 0 -9 0 10 -262144
-1 -1 0 1;
#X obj 365 141 sig~;
#X obj 411 139 sig~;
#X obj 466 146 sig~;
#X obj 344 122 line 80;
#X msg 370 72 120 100000;
#X obj 403 122 line 500;
#X msg 414 95 200 100000;
#X obj 466 121 line 3000;
#X obj 592 171;
#X msg 493 96 5000 10000;
#X obj 448 7 bng 7 250 50 0 empty empty empty 17 7 0 10 -262144 -1
-1;
#X obj 146 139 vcf~ 5;
#X obj 260 137 vcf~ 5;
#X obj 200 137 vcf~ 2;
#X floatatom 238 36 5 0 0 0 - - -, f 5;
#X obj 213 202 *~;
#X obj 197 89 noise~ 2000;
#X connect 0 0 18 0;
#X connect 1 0 19 0;
#X connect 3 0 2 0;
#X connect 3 0 2 1;
#X connect 4 0 2 0;
#X connect 4 0 2 1;
#X connect 5 0 3 1;
#X connect 5 0 22 1;
#X connect 6 0 4 1;
#X connect 7 0 18 1;
#X connect 8 0 20 1;
#X connect 9 0 19 1;
#X connect 10 0 7 0;
#X connect 11 0 10 0;
#X connect 12 0 8 0;
#X connect 13 0 12 0;
#X connect 14 0 9 0;
#X connect 16 0 14 0;
#X connect 17 0 11 0;
#X connect 17 0 13 0;
#X connect 17 0 16 0;
#X connect 19 0 4 0;
#X connect 20 0 22 0;
#X connect 21 0 20 1;
#X connect 22 0 2 0;
#X connect 23 0 20 0;
