#N canvas 235 22 843 664 10;
#X obj 111 232 *~;
#X obj 98 406 out~;
#X obj 24 -3 tgl 15 0 empty empty empty 17 7 0 10 -262144 -1 -1 0 1
;
#X obj 65 183 +~;
#X obj 206 224 vline~;
#X obj 187 179 *~ 0.5;
#N canvas 0 22 450 278 (subpatch) 0;
#X array yay 100 float 3;
#A 0 0 0 0 0 0 0 0 0 0 0 0 0 0 0 0 0 0 0 0 0 0 0 0 0 0 0 0 0 0 0 0
0 0 0 0 0 0 0 0 0 0 0 0 0 0 0 0 0 0 0 0 0 0 0 0 0 0 0 0 0 0 0 0 0 0
0 0 0 0 0 0 0 0 0 0 0 0 0 0 0 0 0 0 0 0 0 0 0 0 0 0 0 0 0 0 0 0 0 0
0;
#X coords 0 1 100 -1 200 140 1;
#X restore 467 303 graph;
#X floatatom 320 105 5 0 0 0 - - -, f 5;
#X obj 213 118 cycle~;
#X msg 133 96 \$1;
#X obj 66 146 bob~ 2;
#X obj 65 110 noise~;
#X floatatom 231 251 0 0 120 0 - - -;
#X text 272 251 level \, dB;
#X floatatom 264 278 0 0 100 0 - - -;
#X text 307 273 liveness \, 0-100;
#X floatatom 301 297 4 0 5000 0 - - -, f 4;
#X floatatom 336 320 0 0 100 0 - - -;
#X text 349 295 crossover frequency \, Hz.;
#X text 372 322 HF damping \, percent;
#X obj 100 329 rev3~ 100 90 3000 20;
#X obj 188 87 + 1000;
#X msg 382 186 1 1 \, 0 1 10;
#X obj -17 106 delay;
#X obj 277 56 random 1000;
#X floatatom 170 32 5 0 0 0 - - -, f 5;
#X obj 17 59 drunk 2500 2000;
#X obj 26 29 metro 20;
#X msg 132 119 5;
#X obj 113 291 freeverb~;
#X connect 0 0 20 0;
#X connect 2 0 27 0;
#X connect 3 0 0 0;
#X connect 4 0 0 1;
#X connect 5 0 3 1;
#X connect 8 0 5 0;
#X connect 9 0 10 1;
#X connect 10 0 3 0;
#X connect 11 0 10 0;
#X connect 12 0 20 2;
#X connect 14 0 20 3;
#X connect 16 0 20 4;
#X connect 17 0 20 5;
#X connect 20 0 1 0;
#X connect 20 1 1 1;
#X connect 21 0 9 0;
#X connect 21 0 8 0;
#X connect 22 0 4 0;
#X connect 23 0 24 0;
#X connect 24 0 7 0;
#X connect 24 0 22 0;
#X connect 26 0 23 1;
#X connect 26 0 25 0;
#X connect 27 0 23 0;
#X connect 27 0 26 0;
#X connect 28 0 10 2;
