#N canvas 28 556 1033 341 10;
#X obj 302 23 tgl 15 0 empty empty empty 17 7 0 10 -262144 -1 -1 0
1;
#X obj 379 40 hsl 128 15 0 1 0 0 empty empty empty -2 -8 0 10 -262144
-1 -1 0 1;
#N canvas 362 94 450 300 faroffrain 0;
#X obj 137 174 metro;
#X floatatom 168 118 5 0 0 0 - - -, f 5;
#X obj 136 131 tgl 15 0 empty empty empty 17 7 0 10 -262144 -1 -1 0
1;
#X obj 139 197 random 1000;
#X floatatom 142 235 5 0 0 0 - - -, f 5;
#X obj 147 276 cycle~;
#X text 134 99 Far off rain;
#X obj 208 235 / 1000;
#X obj 156 503 dac~;
#X obj 222 335 hsl 128 15 0 1 0 0 empty empty empty -2 -8 0 10 -262144
-1 -1 11300 1;
#X obj 165 443 *~;
#X obj 209 446 *~;
#X obj 147 315 *~ 0.2;
#X obj 260 411 -;
#X obj 224 358 select 2;
#X msg 279 380 1;
#X floatatom 207 462 5 0 0 0 - - -, f 5;
#X floatatom 165 426 5 0 0 0 - - -, f 5;
#X obj 122 79 inlet;
#X obj 295 104 inlet;
#X obj 242 102 inlet;
#X obj 349 106 inlet;
#X connect 0 0 3 0;
#X connect 1 0 0 1;
#X connect 2 0 0 0;
#X connect 3 0 4 0;
#X connect 3 0 7 0;
#X connect 4 0 5 0;
#X connect 5 0 12 0;
#X connect 7 0 5 1;
#X connect 9 0 14 0;
#X connect 9 0 13 0;
#X connect 9 0 11 1;
#X connect 9 0 17 0;
#X connect 10 0 8 0;
#X connect 11 0 8 1;
#X connect 12 0 10 0;
#X connect 12 0 11 0;
#X connect 13 0 10 1;
#X connect 13 0 16 0;
#X connect 14 1 15 0;
#X connect 15 0 13 1;
#X connect 18 0 2 0;
#X connect 19 0 12 1;
#X connect 20 0 3 1;
#X connect 21 0 9 0;
#X restore 303 88 pd faroffrain;
#X obj 399 62 hsl 128 15 0 1 0 0 empty empty empty -2 -8 0 10 -262144
-1 -1 11300 1;
#X text 516 37 VOLUME;
#X text 535 62 PANNING;
#X obj 361 242 hsl 128 15 0 1 0 0 empty empty empty -2 -8 0 10 -4032
-1 -1 8400 1;
#X obj 246 205 hsl 128 15 0 1 0 0 empty empty empty -2 -8 0 10 -4034
-1 -1 7000 1;
#X obj 305 223 hsl 128 15 0 1 0 0 empty empty empty -2 -8 0 10 -260097
-1 -1 4600 1;
#N canvas 0 22 1280 976 rain 0;
#X obj 448 96 metro;
#X floatatom 479 70 5 0 0 0 - - -, f 5;
#X obj 447 53 tgl 15 0 empty empty empty 17 7 0 10 -262144 -1 -1 0
1;
#X obj 450 142 bng 15 250 50 0 empty empty empty 17 7 0 10 -262144
-1 -1;
#X obj 456 174 random 10000;
#X obj 458 209 + 1000;
#X floatatom 463 242 5 0 0 0 - - -, f 5;
#X obj 346 235 noise~;
#X obj 358 332 *~;
#X obj 414 307 vline~;
#X msg 544 323 1 2 \, 0 2 2;
#X obj 353 290 bob~, f 9;
#X floatatom 452 272 5 0 0 0 - - -, f 5;
#N canvas 0 28 1280 700 freeverb 0;
#X obj 178 349 freeverb~;
#X msg 262 54 roomsize \$1;
#X msg 261 115 damping \$1;
#X msg 257 185 wet \$1;
#X msg 256 206 dry \$1;
#X msg 275 275 freeze \$1;
#X msg 275 315 bypass \$1;
#X obj 275 258 tgl 15 0 empty empty empty 17 7 0 10 -262144 -1 -1 0
1;
#X obj 275 298 tgl 15 0 empty empty empty 17 7 0 10 -262144 -1 -1 0
1;
#X obj 389 148 hsl 128 15 0 1 0 0 empty empty empty -2 -8 0 10 -4032
-1 -1 8400 1;
#X floatatom 386 167 5 0 0 0 - - -, f 5;
#X obj 317 189 expr 1-$f1;
#X obj 387 33 hsl 128 15 0 1 0 0 empty empty empty -2 -8 0 10 -4034
-1 -1 7000 1;
#X obj 389 90 hsl 128 15 0 1 0 0 empty empty empty -2 -8 0 10 -260097
-1 -1 4600 1;
#X floatatom 386 110 5 0 0 0 - - -, f 5;
#X floatatom 384 58 5 0 0 0 - - -, f 5;
#X text 366 264 Freeze the reverb;
#X text 366 324 the dry signal pass through.;
#X text 365 311 Trun the reverb off and let;
#X text 436 175 Wet signal to dry signal ratio;
#X text 436 191 (0 : all dry \, 1 : all wet);
#X text 437 110 Damping level;
#X text 436 56 Roomize;
#X text 271 460 Pierre Massat \, GuitarExtended \, 2012;
#X obj 160 215 inlet~;
#X obj 158 397 outlet~;
#X obj 239 402 outlet~;
#X obj 389 4 inlet;
#X obj 538 62 inlet;
#X obj 588 124 inlet, f 18;
#X connect 0 0 25 0;
#X connect 0 1 26 0;
#X connect 1 0 0 0;
#X connect 2 0 0 0;
#X connect 3 0 0 0;
#X connect 4 0 0 0;
#X connect 5 0 0 0;
#X connect 6 0 0 0;
#X connect 7 0 5 0;
#X connect 8 0 6 0;
#X connect 9 0 10 0;
#X connect 9 0 3 0;
#X connect 9 0 11 0;
#X connect 11 0 4 0;
#X connect 12 0 1 0;
#X connect 12 0 15 0;
#X connect 13 0 2 0;
#X connect 13 0 14 0;
#X connect 24 0 0 0;
#X connect 27 0 12 0;
#X connect 28 0 13 0;
#X connect 29 0 9 0;
#X restore 359 367 pd freeverb;
#X obj 366 471 dac~;
#X text 559 175 randomness;
#X text 345 218 SOURCE;
#X obj 478 47 random 400;
#X obj 674 62 hsl 128 15 0 1000 0 0 empty empty empty -2 -8 0 10 -262144
-1 -1 1600 1;
#X text 609 44 Changes randomness for metronome;
#X obj 742 136 inlet;
#X obj 695 137 inlet;
#X obj 789 135 inlet;
#X obj 441 17 inlet;
#X obj 562 11 inlet;
#X obj 503 13 inlet;
#X obj 649 137 inlet, f 49;
#X connect 0 0 3 0;
#X connect 0 0 17 0;
#X connect 1 0 0 1;
#X connect 2 0 0 0;
#X connect 3 0 4 0;
#X connect 3 0 10 0;
#X connect 4 0 5 0;
#X connect 5 0 6 0;
#X connect 6 0 11 1;
#X connect 7 0 11 0;
#X connect 8 0 13 0;
#X connect 9 0 8 1;
#X connect 10 0 9 0;
#X connect 11 0 8 0;
#X connect 12 0 11 2;
#X connect 13 0 14 0;
#X connect 13 1 14 1;
#X connect 17 0 1 0;
#X connect 18 0 17 1;
#X connect 20 0 13 2;
#X connect 21 0 13 1;
#X connect 22 0 13 3;
#X connect 23 0 2 0;
#X connect 24 0 18 0;
#X connect 25 0 4 1;
#X connect 26 0 12 0;
#X restore 17 264 pd rain, f 49;
#X obj 18 216 tgl 15 0 empty empty empty 17 7 0 10 -262144 -1 -1 0
1;
#X obj 131 164 hsl 128 15 0 1000 0 0 empty empty empty -2 -8 0 10 -262144
-1 -1 1600 1;
#X obj 188 184 hsl 128 15 0 4 0 0 empty empty empty -2 -8 0 10 -262144
-1 -1 8300 1;
#X text 38 214 ON/OFF;
#X text 267 163 SPEED;
#X text 325 184 RESOANANCE;
#X text 381 204 ROOM SIZE;
#X text 441 222 DAMPING;
#X text 493 244 WET/DRY mix;
#N canvas 610 243 450 457 gemcode 0;
#X obj 58 308 gemwin;
#X msg 52 184 create;
#X msg 134 216 1;
#X msg 210 208 destroy;
#X obj 148 40 tgl 30 0 empty empty empty 17 7 0 10 -262144 -1 -1 1
1;
#X obj 110 96 == 1;
#X obj 202 96 == 0;
#X obj 202 132 gate;
#X obj 102 142 gate;
#X obj 163 5 inlet;
#X connect 1 0 0 0;
#X connect 2 0 0 0;
#X connect 3 0 0 0;
#X connect 4 0 5 0;
#X connect 4 0 6 0;
#X connect 5 0 8 0;
#X connect 5 0 8 1;
#X connect 6 0 7 0;
#X connect 6 0 7 1;
#X connect 7 0 3 0;
#X connect 8 0 1 0;
#X connect 8 0 2 0;
#X connect 9 0 4 0;
#X restore 19 69 pd gemcode;
#X obj 17 21 tgl 30 0 empty empty empty 17 7 0 10 -262144 -1 -1 1 1
;
#X text 51 21 ON/OFF;
#N canvas 10 215 1194 783 visualfeedbacksystem 0;
#X obj 331 136 pix_draw;
#X obj 331 317 triangle 1;
#X text 323 345 SHAPE CODE;
#X obj 332 188 colour 1 1 0;
#X obj 331 98 gemhead 2;
#X floatatom 32 372 5 0 0 0 - - -, f 5;
#X floatatom 113 370 5 0 0 0 - - -, f 5;
#X floatatom 199 361 5 0 0 0 - - -, f 5;
#X obj 340 260 translateXYZ;
#X text 28 485 Max 4 Min -4 TOTAL:8;
#X obj 83 258 gemmouse 8 8;
#X obj 57 323 - 4;
#X obj 109 328 - 4;
#X obj 116 411 * -1;
#X obj 575 191 pix_draw;
#X floatatom 721 293 5 0 1 0 - - -, f 5;
#X text 569 117 BACKGROUND;
#X obj 575 153 gemhead 1;
#X obj 575 305 square 4;
#X obj 576 243 colour 0.5 0 1;
#X connect 0 0 3 0;
#X connect 3 0 8 0;
#X connect 4 0 0 0;
#X connect 5 0 8 1;
#X connect 6 0 13 0;
#X connect 8 0 1 0;
#X connect 10 0 11 0;
#X connect 10 1 12 0;
#X connect 10 2 7 0;
#X connect 11 0 5 0;
#X connect 12 0 6 0;
#X connect 13 0 8 2;
#X connect 14 0 19 0;
#X connect 15 0 18 1;
#X connect 17 0 14 0;
#X connect 19 0 18 0;
#X restore 20 92 pd visualfeedbacksystem;
#N canvas 525 120 450 300 DSP 0;
#X msg 109 215 \; pd dsp 1;
#X msg 182 216 \; pd dsp 0;
#X obj 128 140 == 1;
#X obj 220 152 == 0;
#X obj 220 188 gate;
#X obj 120 186 gate;
#X obj 176 84 inlet;
#X connect 2 0 5 0;
#X connect 2 0 5 1;
#X connect 3 0 4 0;
#X connect 3 0 4 1;
#X connect 4 0 1 0;
#X connect 5 0 0 0;
#X connect 6 0 2 0;
#X connect 6 0 3 0;
#X restore 101 66 pd DSP;
#X text 721 35 GEMCODE FINALE: CODE DROP/PICK UP SYSTEM;
#X text 739 89 CODE BETTER NOISE (BROADBAND);
#X text 729 62 CODE BETTER RAIN (randomness);
#X connect 0 0 2 0;
#X connect 1 0 2 2;
#X connect 3 0 2 3;
#X connect 6 0 9 6;
#X connect 7 0 9 4;
#X connect 8 0 9 5;
#X connect 10 0 9 0;
#X connect 11 0 9 2;
#X connect 12 0 9 3;
#X connect 20 0 19 0;
#X connect 20 0 23 0;
