#N canvas 23 22 1212 975 10;
#X obj 244 68 hsl 128 15 0 1 0 0 empty empty empty -2 -8 0 10 -262144
-1 -1 0 1;
#N canvas 0 289 1280 691 faroffrain 0;
#X obj 145 393 dac~;
#X obj 143 372 *~;
#X obj 152 271 *~ 0.2;
#X obj 197 62 inlet;
#X obj 333 13 inlet;
#N canvas 676 50 681 676 pan 0;
#X obj 86 56 hsl 128 15 0 1 0 0 empty empty empty -2 -8 0 10 -262144
-1 -1 0 1;
#X obj 78 174 *~;
#X obj 124 132 -;
#X obj 75 94 select 2;
#X msg 143 101 1;
#X floatatom 101 201 5 0 0 0 - - -, f 5;
#X floatatom 30 119 5 0 0 0 - - -, f 5;
#X obj 75 29 inlet;
#X obj 170 237 outlet;
#X obj 35 230 outlet~;
#X obj 25 22 inlet~;
#X connect 0 0 3 0;
#X connect 0 0 2 0;
#X connect 0 0 1 1;
#X connect 0 0 6 0;
#X connect 1 0 9 0;
#X connect 2 0 5 0;
#X connect 2 0 8 0;
#X connect 3 1 4 0;
#X connect 4 0 2 1;
#X connect 7 0 0 0;
#X connect 10 0 1 0;
#X restore 333 193 pd pan;
#X obj 149 171 noise~;
#X floatatom 242 177 5 0 0 0 - - -, f 5;
#X floatatom 300 178 5 0 0 0 - - -, f 5;
#X obj 157 222 vcf~;
#X msg 425 70 1332;
#X msg 467 69 6;
#X msg 510 100 7000;
#X msg 555 98 20;
#X msg 646 96 200;
#X msg 680 96 5;
#X obj 448 27 bng 15 250 50 0 empty empty empty 17 7 0 10 -262144 -1
-1;
#X obj 555 39 bng 15 250 50 0 empty empty empty 17 7 0 10 -262144 -1
-1;
#X obj 652 36 bng 15 250 50 0 empty empty empty 17 7 0 10 -262144 -1
-1;
#X obj 297 301 scope~ 130 130 256 3 128 -1 1 0 0 0 0 205 229 232 74
79 77 96 98 102 0;
#X connect 1 0 0 0;
#X connect 2 0 1 0;
#X connect 2 0 5 0;
#X connect 2 0 19 0;
#X connect 3 0 2 1;
#X connect 4 0 5 1;
#X connect 5 0 0 1;
#X connect 5 1 1 1;
#X connect 6 0 9 0;
#X connect 7 0 9 1;
#X connect 8 0 9 2;
#X connect 9 0 2 0;
#X connect 10 0 7 0;
#X connect 11 0 8 0;
#X connect 12 0 7 0;
#X connect 13 0 8 0;
#X connect 14 0 7 0;
#X connect 15 0 8 0;
#X connect 16 0 10 0;
#X connect 16 0 11 0;
#X connect 17 0 12 0;
#X connect 17 0 13 0;
#X connect 18 0 14 0;
#X connect 18 0 15 0;
#X restore 241 107 pd faroffrain;
#X obj 334 86 hsl 128 15 0 1 0 0 empty empty empty -2 -8 0 10 -262144
-1 -1 0 1;
#X text 375 65 VOLUME;
#X text 468 83 PANNING;
#N canvas 76 24 1280 685 visualfeedbacksystem 0;
#X obj 185 240 pix_draw;
#X obj 185 219 gemhead;
#X floatatom 442 334 5 0 1 0 - - -, f 5;
#X text 364 268 size of circle;
#X obj 316 -11 vsl 15 128 0 1 0 0 empty empty empty 0 -9 0 10 -262144
-1 -1 0 1;
#X obj 649 56 pix_draw;
#X text 643 22 circle code;
#X obj 649 39 gemhead 2;
#X obj 650 74 colour 1 1 1;
#X obj 649 90 square 4;
#X text 499 -33 background color;
#X obj 187 347 triangle 1;
#X text 188 200 shape code;
#X floatatom 454 381 5 0 0 0 - - -, f 5;
#X floatatom 573 372 5 0 0 0 - - -, f 5;
#X floatatom 604 285 5 0 0 0 - - -, f 5;
#X floatatom 285 231 5 0 1 0 - - -, f 5;
#X obj 193 308 translateXYZ;
#X text 332 457 dimensions of screen: 8 x 8 (-4 to 4);
#X obj 492 181 gemmouse 8 8;
#X obj 471 212 - 4;
#X obj 529 245 - 4;
#X obj 510 338 * -1;
#X obj 218 409 s Xaxis;
#X obj 410 416 s Yaxis;
#X obj 874 187 gemhead 3;
#X obj 885 226 pix_draw;
#X obj 888 315 triangle 0.2;
#X obj 187 273 colour 0 1 0;
#X obj 892 263 colour 0.647059 0.164706 0.164706;
#X connect 0 0 28 0;
#X connect 1 0 0 0;
#X connect 2 0 11 1;
#X connect 4 0 2 0;
#X connect 5 0 8 0;
#X connect 7 0 5 0;
#X connect 8 0 9 0;
#X connect 13 0 17 1;
#X connect 13 0 23 0;
#X connect 14 0 22 0;
#X connect 16 0 17 3;
#X connect 17 0 11 0;
#X connect 19 0 20 0;
#X connect 19 1 21 0;
#X connect 19 2 15 0;
#X connect 20 0 13 0;
#X connect 21 0 14 0;
#X connect 22 0 17 2;
#X connect 22 0 24 0;
#X connect 25 0 26 0;
#X connect 26 0 29 0;
#X connect 28 0 17 0;
#X connect 29 0 27 0;
#X restore 11 196 pd visualfeedbacksystem;
#N canvas 592 237 450 300 gemcode 0;
#X obj 167 248 gemwin;
#X msg 217 198 1;
#X msg 149 197 create;
#X msg 272 200 destroy;
#X obj 172 79 tgl 15 0 empty empty empty 17 7 0 10 -262144 -1 -1 0
1;
#X obj 160 119 == 1;
#X obj 205 120 == 0;
#X obj 160 159 gate;
#X obj 205 157 gate;
#X obj 164 39 inlet;
#X msg 317 128;
#X connect 1 0 0 0;
#X connect 2 0 0 0;
#X connect 3 0 0 0;
#X connect 4 0 5 0;
#X connect 4 0 6 0;
#X connect 5 0 7 0;
#X connect 5 0 7 1;
#X connect 6 0 8 0;
#X connect 6 0 8 1;
#X connect 7 0 2 0;
#X connect 7 0 1 0;
#X connect 8 0 3 0;
#X connect 9 0 4 0;
#X restore 20 169 pd gemcode;
#X obj 18 71 tgl 45 0 empty empty empty 17 7 0 10 -262144 -1 -1 0 1
;
#X text 72 73 on/off;
#N canvas 194 22 450 447 DSP 0;
#X obj 72 32 inlet;
#X obj 37 82 == 1;
#X obj 33 125 gate;
#X msg 32 160 \; pd dsp 1;
#X obj 120 122 gate;
#X obj 124 81 == 0;
#X msg 119 157 \; pd dsp 0;
#X connect 0 0 1 0;
#X connect 0 0 5 0;
#X connect 1 0 2 0;
#X connect 1 0 2 1;
#X connect 2 0 3 0;
#X connect 4 0 6 0;
#X connect 5 0 4 0;
#X connect 5 0 4 1;
#X restore 83 139 pd DSP;
#X obj 158 465 r Xaxis;
#X floatatom 238 458 5 0 0 0 - - -, f 5;
#N canvas 795 296 450 383 WDlogic 0;
#X obj 113 9 r Yaxis;
#X floatatom 113 54 5 0 0 0 - - -, f 5;
#X obj 113 32 / -4;
#X obj 113 76 moses 0;
#X floatatom 113 98 5 0 0 0 - - -, f 5;
#X floatatom 152 98 5 0 0 0 - - -, f 5;
#X obj 113 120 * -1;
#X floatatom 113 144 5 0 0 0 - - -, f 5;
#X obj 159 201 outlet;
#X connect 0 0 2 0;
#X connect 1 0 3 0;
#X connect 2 0 1 0;
#X connect 3 0 4 0;
#X connect 3 1 5 0;
#X connect 4 0 6 0;
#X connect 5 0 8 0;
#X connect 6 0 7 0;
#X connect 7 0 8 0;
#X restore 272 347 pd WDlogic;
#X obj 356 348 hsl 128 15 0 1 0 0 empty empty empty -2 -8 0 10 -4032
-1 -1 12700 1;
#X obj 241 311 hsl 128 15 0 1 0 0 empty empty empty -2 -8 0 10 -4034
-1 -1 0 1;
#X obj 300 329 hsl 128 15 0 1 0 0 empty empty empty -2 -8 0 10 -260097
-1 -1 7100 1;
#N canvas 132 172 1280 881 rain 0;
#X obj 448 96 metro;
#X floatatom 479 70 5 0 0 0 - - -, f 5;
#X obj 447 53 tgl 15 0 empty empty empty 17 7 0 10 -262144 -1 -1 1
1;
#X obj 450 142 bng 15 250 50 0 empty empty empty 17 7 0 10 -262144
-1 -1;
#X obj 456 174 random 10000;
#X obj 458 209 + 1000;
#X floatatom 463 242 5 0 0 0 - - -, f 5;
#X obj 346 235 noise~;
#X obj 358 332 *~;
#X obj 414 307 vline~;
#X floatatom 452 272 5 0 0 0 - - -, f 5;
#N canvas 0 50 1280 700 freeverb 0;
#X obj 178 349 freeverb~;
#X msg 262 54 roomsize \$1;
#X msg 261 115 damping \$1;
#X msg 257 185 wet \$1;
#X msg 256 206 dry \$1;
#X msg 275 275 freeze \$1;
#X msg 275 315 bypass \$1;
#X obj 275 258 tgl 15 0 empty empty empty 17 7 0 10 -262144 -1 -1 0
1;
#X obj 275 298 tgl 15 0 empty empty empty 17 7 0 10 -262144 -1 -1 0
1;
#X obj 389 148 hsl 128 15 0 1 0 0 empty empty empty -2 -8 0 10 -4032
-1 -1 12700 1;
#X floatatom 386 167 5 0 0 0 - - -, f 5;
#X obj 317 189 expr 1-$f1;
#X obj 387 33 hsl 128 15 0 1 0 0 empty empty empty -2 -8 0 10 -4034
-1 -1 0 1;
#X obj 389 90 hsl 128 15 0 1 0 0 empty empty empty -2 -8 0 10 -260097
-1 -1 7100 1;
#X floatatom 386 110 5 0 0 0 - - -, f 5;
#X floatatom 384 58 5 0 0 0 - - -, f 5;
#X text 366 264 Freeze the reverb;
#X text 366 324 the dry signal pass through.;
#X text 365 311 Trun the reverb off and let;
#X text 436 175 Wet signal to dry signal ratio;
#X text 436 191 (0 : all dry \, 1 : all wet);
#X text 437 110 Damping level;
#X text 436 56 Roomize;
#X text 271 460 Pierre Massat \, GuitarExtended \, 2012;
#X obj 160 215 inlet~;
#X obj 158 397 outlet~;
#X obj 239 402 outlet~;
#X obj 389 4 inlet;
#X obj 538 62 inlet;
#X obj 588 124 inlet, f 18;
#X connect 0 0 25 0;
#X connect 0 1 26 0;
#X connect 1 0 0 0;
#X connect 2 0 0 0;
#X connect 3 0 0 0;
#X connect 4 0 0 0;
#X connect 5 0 0 0;
#X connect 6 0 0 0;
#X connect 7 0 5 0;
#X connect 8 0 6 0;
#X connect 9 0 10 0;
#X connect 9 0 3 0;
#X connect 9 0 11 0;
#X connect 11 0 4 0;
#X connect 12 0 1 0;
#X connect 12 0 15 0;
#X connect 13 0 2 0;
#X connect 13 0 14 0;
#X connect 24 0 0 0;
#X connect 27 0 12 0;
#X connect 28 0 13 0;
#X connect 29 0 9 0;
#X restore 359 367 pd freeverb;
#X obj 391 470 dac~;
#X text 559 175 randomness;
#X text 345 218 SOURCE;
#X obj 478 47 random 400;
#X obj 674 62 hsl 128 15 0 1000 0 0 empty empty empty -2 -8 0 10 -262144
-1 -1 1700 1;
#X text 609 44 Changes randomness for metronome;
#X obj 702 151 inlet;
#X obj 664 133 inlet;
#X obj 733 170 inlet;
#X obj 441 17 inlet;
#X obj 562 11 inlet;
#X obj 503 13 inlet;
#X obj 618 116 inlet, f 6;
#X obj 353 290 vcf~, f 9;
#N canvas 42 156 1184 800 markovchain 0;
#X obj 107 193 bng 15 250 50 0 empty empty empty 20 8 0 8 -262144 -1
-1;
#X obj 107 251 bng 15 250 50 0 empty empty empty 20 8 0 8 -262144 -1
-1;
#X obj 180 267 bng 15 250 50 0 empty empty empty 20 8 0 8 -262144 -1
-1;
#X obj 233 322 bng 15 250 50 0 empty empty empty 20 8 0 8 -262144 -1
-1;
#X msg 107 270 1;
#X msg 181 284 2;
#X msg 220 289 3;
#X obj 126 297 s state;
#X obj 196 63 bng 20 250 50 0 empty empty empty 20 8 0 8 -262144 -1
-1;
#X obj 235 54 r state;
#X obj 213 115 sel 1 2 3;
#X obj 232 142 bng 15 250 50 0 empty empty empty 20 8 0 8 -262144 -1
-1;
#X obj 420 420 bng 15 250 50 0 empty empty empty 20 8 0 8 -262144 -1
-1;
#X obj 466 418 bng 15 250 50 0 empty empty empty 20 8 0 8 -262144 -1
-1;
#X obj 506 421 bng 15 250 50 0 empty empty empty 20 8 0 8 -262144 -1
-1;
#X msg 420 443 1;
#X msg 461 444 2;
#X msg 505 445 3;
#X obj 411 467 s state;
#X obj 673 256 bng 15 250 50 0 empty empty empty 20 8 0 8 -262144 -1
-1;
#X obj 673 341 bng 15 250 50 0 empty empty empty 20 8 0 8 -262144 -1
-1;
#X obj 753 340 bng 15 250 50 0 empty empty empty 20 8 0 8 -262144 -1
-1;
#X obj 792 343 bng 15 250 50 0 empty empty empty 20 8 0 8 -262144 -1
-1;
#X msg 673 364 1;
#X msg 753 365 2;
#X msg 792 366 3;
#X obj 672 397 s state;
#X obj 213 89 f 1;
#X obj 126 214 random 100;
#X obj 126 231 moses 30;
#X obj 445 381 random 100;
#X obj 673 283 random 100;
#X floatatom 264 78 3 0 0 0 - - -, f 3;
#X text 179 42 STEP;
#X obj 180 249 moses 80;
#X obj 673 312 moses 20;
#X obj 753 312 moses 90;
#X obj 406 400 moses 40;
#X obj 471 399 moses 90;
#X obj 452 661 outlet;
#X obj 63 100 inlet;
#X obj 332 564 random 400;
#X obj 430 562 random 400;
#X obj 537 558 random 400;
#X msg 434 635 \$1 1 \, 0 2 2;
#X obj 336 586 / 1000;
#X obj 430 601 + 0.4;
#X obj 430 580 / 1000;
#X obj 541 581 / 1000;
#X obj 539 601 + 0.6;
#X text 367 546 Quiet;
#X text 452 547 Medium;
#X text 574 540 LOUD, f 21;
#X connect 0 0 28 0;
#X connect 1 0 4 0;
#X connect 1 0 41 0;
#X connect 2 0 5 0;
#X connect 2 0 42 0;
#X connect 3 0 6 0;
#X connect 3 0 43 0;
#X connect 4 0 7 0;
#X connect 5 0 7 0;
#X connect 6 0 7 0;
#X connect 8 0 27 0;
#X connect 9 0 27 1;
#X connect 9 0 32 0;
#X connect 10 0 0 0;
#X connect 10 1 11 0;
#X connect 10 2 19 0;
#X connect 11 0 30 0;
#X connect 12 0 15 0;
#X connect 12 0 41 0;
#X connect 13 0 16 0;
#X connect 13 0 42 0;
#X connect 14 0 17 0;
#X connect 14 0 43 0;
#X connect 15 0 18 0;
#X connect 16 0 18 0;
#X connect 17 0 18 0;
#X connect 19 0 31 0;
#X connect 20 0 23 0;
#X connect 20 0 41 0;
#X connect 21 0 24 0;
#X connect 21 0 42 0;
#X connect 22 0 25 0;
#X connect 22 0 43 0;
#X connect 23 0 26 0;
#X connect 24 0 26 0;
#X connect 25 0 26 0;
#X connect 27 0 10 0;
#X connect 28 0 29 0;
#X connect 29 0 1 0;
#X connect 29 1 34 0;
#X connect 30 0 37 0;
#X connect 31 0 35 0;
#X connect 34 0 2 0;
#X connect 34 1 3 0;
#X connect 35 0 20 0;
#X connect 35 1 36 0;
#X connect 36 0 21 0;
#X connect 36 1 22 0;
#X connect 37 0 12 0;
#X connect 37 1 38 0;
#X connect 38 0 13 0;
#X connect 38 1 14 0;
#X connect 40 0 8 0;
#X connect 41 0 45 0;
#X connect 42 0 47 0;
#X connect 43 0 48 0;
#X connect 44 0 39 0;
#X connect 45 0 44 0;
#X connect 46 0 44 0;
#X connect 47 0 46 0;
#X connect 48 0 49 0;
#X connect 49 0 44 0;
#X restore 637 282 pd markovchain;
#X connect 0 0 3 0;
#X connect 0 0 15 0;
#X connect 1 0 0 1;
#X connect 2 0 0 0;
#X connect 3 0 4 0;
#X connect 3 0 26 0;
#X connect 4 0 5 0;
#X connect 5 0 6 0;
#X connect 6 0 25 1;
#X connect 7 0 25 0;
#X connect 8 0 11 0;
#X connect 9 0 8 1;
#X connect 10 0 25 2;
#X connect 11 0 12 0;
#X connect 11 1 12 1;
#X connect 15 0 1 0;
#X connect 16 0 15 1;
#X connect 18 0 11 2;
#X connect 19 0 11 1;
#X connect 20 0 11 3;
#X connect 21 0 2 0;
#X connect 22 0 16 0;
#X connect 23 0 4 1;
#X connect 24 0 10 0;
#X connect 25 0 8 0;
#X connect 26 0 9 0;
#X restore 12 370 pd rain;
#X obj 13 307 tgl 15 0 empty empty empty 17 7 0 10 -262144 -1 -1 1
1;
#X obj 126 270 hsl 128 15 0 1000 0 0 empty empty empty -2 -8 0 10 -262144
-1 -1 1700 1;
#X obj 183 290 hsl 128 15 0 4 0 0 empty empty empty -2 -8 0 10 -262144
-1 -1 6300 1;
#X text 33 305 ON/OFF;
#X text 262 269 SPEED;
#X text 320 290 RESOANANCE;
#X text 376 310 ROOM SIZE;
#X text 436 328 DAMPING;
#X text 488 350 WET/DRY mix;
#X obj 538 44 loadbang;
#X obj 540 67 s lb;
#X obj 17 38 r lb;
#X text 683 12 TOP LEVEL;
#X obj 15 272 r lb;
#X floatatom 180 319 5 0 0 0 - - -, f 5;
#X obj 123 241 r humidity;
#X msg 318 270 2;
#X obj 317 243 r lb;
#X obj 410 286 r humidity;
#X obj 564 309 r gyroscope;
#X connect 0 0 1 0;
#X connect 2 0 1 1;
#X connect 7 0 9 0;
#X connect 7 0 6 0;
#X connect 12 0 13 0;
#X connect 13 0 16 6;
#X connect 14 0 16 4;
#X connect 15 0 16 5;
#X connect 17 0 16 0;
#X connect 18 0 16 2;
#X connect 19 0 16 3;
#X connect 19 0 31 0;
#X connect 26 0 27 0;
#X connect 28 0 7 0;
#X connect 30 0 17 0;
#X connect 32 0 18 0;
#X connect 33 0 19 0;
#X connect 34 0 33 0;
#X connect 35 0 14 0;
#X connect 36 0 13 0;
